<?xml version="1.0" encoding="UTF-8"?>
<svg id="_레이어_1" data-name="레이어_1" xmlns="http://www.w3.org/2000/svg" version="1.1" viewBox="0 0 863 325.54">
  <!-- Generator: Adobe Illustrator 30.2.1, SVG Export Plug-In . SVG Version: 2.1.1 Build 1)  -->
  <g id="rheehose_typo">
    <g>
      <path d="M228.26,3.38c-12.52,8.3-28.87,28.08-43.63,52.59-22.41,37.17-56.94,116.79-59.32,136.3-.66,5.54-.26,6.72,2.37,9.23,3.69,3.56,8.83,5.8,10.55,4.61.66-.4,3.82-6.2,6.85-12.79,3.16-6.72,8.44-16.34,11.86-21.49,5.93-8.96,35.06-42.05,36.12-40.99.26.4-1.05,3.95-2.9,8.17-10.55,23.99-11.07,39.02-1.58,49.17,10.02,10.81,18.98,8.7,35.85-8.44,6.46-6.59,9.89-9.23,9.89-7.65,0,3.95,6.33,13.31,10.94,16.21,5.93,3.69,13.97,4.75,20.17,2.77,7.51-2.5,18.59-9.89,26.49-17.4l6.85-6.72.92,4.88c1.05,6.2,5.93,12,12.79,15.55,13.18,6.59,31.64-2.11,48.9-23.46,6.99-8.44,11.2-18.32,8.83-20.69-1.05-1.05-3.82.79-11.07,7.91-12.92,12.79-28.08,22.67-37.3,24.65-5.4,1.19-8.83-1.85-7.65-6.85,1.85-7.51,3.3-9.49,8.7-12.26,11.86-5.93,27.42-17.27,33.88-24.78,8.83-10.15,16.34-24.52,15.29-28.87-1.45-5.93-10.81-12-18.59-12.13-13.97-.13-38.62,24.65-50.88,51.01-9.89,20.83-47.45,44.29-52.59,32.82-2.24-4.75.92-9.89,7.38-12.52,24.25-9.75,46.79-34.01,46.79-50.62,0-4.35-.79-6.33-2.9-8.3-7.25-6.33-18.59-7.65-27.42-3.16-12.13,6.2-32.43,31.77-37.7,47.72-1.58,5.14-4.35,8.44-13.84,17.14-13.71,12.65-19.24,16.48-21.09,14.63-3.56-3.56,7.91-39.54,19.77-61.69,7.38-13.97,7.38-13.31.92-17.14-9.49-5.54-10.68-5.01-28.6,12.13-8.96,8.57-19.64,18.98-23.73,23.2l-7.65,7.51,5.67-12.13c26.63-57.34,50.62-96.88,72.5-119.42,7.65-7.91,7.91-8.44,5.54-10.28-4.09-2.9-11.6-2.24-17.4,1.58ZM355.33,109.62c-3.43,6.06-16.48,19.9-23.33,24.78l-4.48,3.16,3.16-4.61c7.91-11.07,24.12-28.74,26.63-28.87.53,0-.4,2.5-1.98,5.54ZM289.69,114.63c-3.69,6.85-11.34,15.69-20.17,23.33-5.14,4.48-9.62,7.91-9.89,7.65-1.98-1.85,17-25.18,25.31-31.24,5.8-4.09,7.12-4.09,4.75.26Z"/>
      <path d="M540.26,12.61c-4.61,3.82-15.03,19.9-23.33,35.72-5.14,10.02-22.54,48.51-24.65,54.44-.4,1.32-5.14,3.16-13.58,5.14-7.25,1.71-14.1,3.69-15.29,4.35-1.32.66-2.37.79-2.37.4,0-.66,19.38-50.35,23.73-61.03,2.64-6.2,1.71-8.04-5.93-11.6-4.09-1.71-7.78-2.9-8.44-2.5-.66.26-3.3,6.2-5.8,12.79-2.64,6.72-7.78,20.3-11.6,30.05s-8.7,22.8-11.07,29l-4.22,11.2-10.41,4.22c-5.67,2.24-11.34,4.48-12.65,4.75-1.32.4-3.03,2.24-3.82,4.09-1.45,3.03-1.19,3.82,1.45,6.72,2.37,2.5,4.48,3.3,8.83,3.3,3.16,0,5.67.26,5.67.53,0,.4-1.45,4.75-3.3,9.89-4.35,11.86-8.57,28.47-8.57,33.35s6.33,11.6,11.07,11.6c2.64,0,3.56-.79,4.09-3.69,2.11-10.28,7.12-24.65,18.06-51.8l4.09-10.15,15.82-5.4c8.7-3.03,16.08-5.14,16.34-4.88s-1.32,5.14-3.69,10.81c-17.93,44.95-24.52,74.21-18.98,84.89,3.03,5.8,9.89,6.99,9.89,1.58,0-6.72,16.34-54.83,29.92-87.92l6.46-15.69,9.89-2.37c10.41-2.37,17.53-3.03,16.74-1.45-19.24,37.57-21.62,56.81-8.17,67.09,3.3,2.5,5.93,3.3,11.07,3.43,5.8,0,7.91-.79,14.1-5.01,7.12-4.88,18.72-18.45,24.78-28.74,8.57-14.76,11.6-36.78,6.33-45.87-2.64-4.75-12.13-10.28-17.66-10.28-1.85,0-4.48-1.19-5.8-2.64-3.56-3.95-7.25-3.16-13.18,2.64l-5.54,5.4-12.65.66-12.79.66,4.35-8.96c17.93-36.78,29.66-58,36.64-66.43l5.01-6.06-3.56-3.43c-1.98-1.85-5.8-3.95-8.57-4.61-4.35-1.19-5.4-1.05-8.7,1.85ZM572.29,108.83c3.95,10.41-6.85,32.56-25.31,51.54-9.36,9.89-12.92,10.81-11.47,3.3,2.24-12.79,17.53-42.97,26.36-52.46,4.48-4.75,9.1-5.8,10.41-2.37Z"/>
      <path d="M753.93,13.14c-21.49,5.67-51.14,25.7-74.21,49.83-15.95,16.74-22.14,27.29-23.2,39.41-.92,9.89,1.05,16.61,7.12,25.44,5.54,7.78,9.89,11.34,28.21,22.8l12.26,7.78-22.28,11.34c-22.41,11.47-42.31,24.25-46.13,29.66-6.2,8.83,3.3,22.01,17.53,24.12,13.71,2.11,35.85-6.99,50.75-20.69,11.07-10.02,16.21-17.4,18.45-26.36,1.05-3.69,2.77-7.38,4.09-8.04,1.19-.66,7.78-3.16,14.63-5.54l12.52-4.35v3.16c0,10.94,6.59,21.22,17.4,27.02,6.46,3.56,20.04,3.16,30.58-.79,22.01-8.3,47.58-31.24,57.6-51.67,7.65-15.29,2.64-22.14-6.46-8.83-15.95,23.33-50.48,47.19-70.65,48.77-7.91.66-8.57.53-10.68-2.64-1.85-2.9-1.98-4.48-.79-10.94,1.98-10.28,4.09-13.05,12.26-15.69,15.55-5.01,26.49-11.47,36.78-21.75,11.2-11.07,15.69-19.11,15.69-27.81,0-7.91-3.56-13.31-11.34-16.87-6.2-3.03-6.59-3.03-13.31-.92-15.69,5.01-37.96,27.15-49.43,49.17l-5.14,10.02-12.13,4.22c-6.72,2.37-15.16,5.54-18.85,7.12l-6.72,2.9-8.57-6.33c-4.75-3.43-12.52-9.23-17.4-12.65-9.23-6.72-16.61-17-16.61-23.33,0-7.91,11.2-25.44,25.57-40.07,17.93-18.32,52.07-38.36,69.99-40.99,5.67-.92,5.93-.79,5.93,2.11,0,8.04-17.79,34.54-34.54,51.54-7.12,7.25-12.92,13.71-12.92,14.37,0,4.09,17.53,2.77,25.7-2.11,14.37-8.3,37.3-44.03,38.62-59.84,1.05-12-6.2-20.69-19.51-23.73-7.91-1.85-9.62-1.71-20.83,1.19ZM820.5,98.42c-3.56,6.72-10.94,14.1-21.88,22.01-5.93,4.22-11.07,7.38-11.47,6.99-1.05-1.05,18.98-22.01,27.02-28.34,3.95-3.03,7.38-5.27,7.65-5.01.4.26-.26,2.24-1.32,4.35ZM700.15,181.2c-7.51,6.72-25.31,18.45-33.74,22.41-3.95,1.85-10.15,3.69-13.71,4.09l-6.46.79,8.57-5.67c6.85-4.61,47.85-26.1,49.96-26.23.26,0-1.71,2.11-4.61,4.61Z"/>
      <path d="M104.22,24.47c-17.53,2.5-37.96,9.36-57.73,19.24C26.45,53.87,1.54,75.62.22,84.45c-.92,5.8,1.05,10.94,5.4,13.84,4.09,2.64,7.25.79,7.25-4.35,0-10.41,44.29-38.36,75.27-47.58,2.5-.79,6.46-1.98,8.83-2.77l4.35-1.32-4.61,6.2c-2.64,3.43-7.91,11.47-11.6,18.06-3.82,6.46-8.04,13.58-9.23,15.82-4.75,8.17-14.1,26.76-19.51,39.02-4.75,11.07-6.06,12.92-9.23,13.58-4.35.79-5.67,3.82-4.22,9.36.92,3.03-.66,8.83-7.25,28.34-9.75,28.34-16.21,52.2-16.21,59.45,0,3.82,1.05,6.2,4.09,9.75,2.24,2.5,5.14,4.61,6.46,4.61,2.37,0,5.27-5.8,5.27-10.81,0-4.09,21.49-67.09,22.54-66.04.53.66,3.03,6.72,5.54,13.58,15.95,44.03,41.79,77.11,72.23,92.53h0c7.28,3.73,15.34,5.67,23.51,5.67h2.85c14.37,0,15.55-.13,20.69-3.69,3.56-2.37,5.54-4.61,5.54-6.33,0-2.24-.53-2.64-2.9-1.98-8.44,2.64-20.17,2.37-28.74-.53-21.62-7.38-47.85-35.33-65.12-69.73-5.93-11.6-16.61-37.96-16.61-40.86,0-1.19,2.9-3.69,6.99-5.93,36.78-20.3,67.09-51.01,81.86-82.52,3.16-6.85,3.95-10.41,3.95-17.93.13-8.17-.26-9.89-3.56-14.24-10.55-13.71-28.87-17.79-59.84-13.18ZM147.06,41.61c3.95,2.77,3.69,7.38-.92,17.27-12.26,25.7-38.36,53.65-62.61,66.96-8.7,4.88-8.96,4.88-8.04,1.85,1.58-4.88,10.68-24.39,23.46-50.62,12.13-24.52,14.24-30.84,11.6-34.14-1.98-2.37,1.71-2.9,20.96-3.16,9.49-.26,13.31.26,15.55,1.85Z"/>
      <path d="M554.1,239.46c-.13.13-9.75.4-21.22.53-65.12.79-145.92,11.86-220.39,30.19-6.06,1.45-15.55,3.69-21.09,5.14-21.75,5.27-54.44,15.42-96.36,30.05-6.72,2.37-8.96,5.67-6.72,10.02,2.77,5.4,8.17,10.15,11.47,10.15,1.85,0,11.34-2.9,21.22-6.59,57.47-20.96,116.52-36.12,186.25-47.98,74.34-12.65,167.67-18.98,227.12-15.42,57.87,3.43,82.38,8.44,93.85,18.98,1.71,1.45,3.43,2.24,3.95,1.85,1.58-1.71-1.98-7.12-7.78-11.73-15.95-12.79-51.41-20.43-109.14-23.33-25.97-1.45-60.5-2.37-61.16-1.85Z"/>
    </g>
  </g>
</svg>